# xmcd CD database file
#
# Track frame offsets:
#	150
#	21625
#	41705
#	61547
#	81405
#	101397
#	120515
#	142502
#	163550
#	183617
#
# Disc length: 2710 seconds
#
# Revision: 0
# Processed by: cddbd v1.4PL0 Copyright (c) Steve Scherf et al.
# Submitted via: CDex 1.51
#
DISCID=7a0a940a
DTITLE=Malaysia Airline - Let the games begin
DYEAR=1900
DGENRE=New Age
TTITLE0=Journey
TTITLE1=The Dream Within Your Soul
TTITLE2=Colours Of The World
TTITLE3=Strive For The Best
TTITLE4=Let The Games Begin
TTITLE5=Perjuangan
TTITLE6=Memories
TTITLE7=Friends
TTITLE8=The Dream Within Your Soul (Instrumental)
TTITLE9=Strive For The Best (Instrumental)
EXTD=
EXTT0=
EXTT1=
EXTT2=
EXTT3=
EXTT4=
EXTT5=
EXTT6=
EXTT7=
EXTT8=
EXTT9=
PLAYORDER=
